<svg width="300" height="72" viewBox="0 0 300 72" fill="none" xmlns="http://www.w3.org/2000/svg">
<path d="M28.656 30.152C28.656 32.104 28.208 33.896 27.312 35.528C26.416 37.128 25.04 38.424 23.184 39.416C21.328 40.408 19.024 40.904 16.272 40.904H11.184V53H2.976V19.304H16.272C18.96 19.304 21.232 19.768 23.088 20.696C24.944 21.624 26.336 22.904 27.264 24.536C28.192 26.168 28.656 28.04 28.656 30.152ZM15.648 34.376C17.216 34.376 18.384 34.008 19.152 33.272C19.92 32.536 20.304 31.496 20.304 30.152C20.304 28.808 19.92 27.768 19.152 27.032C18.384 26.296 17.216 25.928 15.648 25.928H11.184V34.376H15.648ZM45.1211 53.384C42.4971 53.384 40.1291 52.824 38.0171 51.704C35.9371 50.584 34.2891 48.984 33.0731 46.904C31.8891 44.824 31.2971 42.392 31.2971 39.608C31.2971 36.856 31.9051 34.44 33.1211 32.36C34.3371 30.248 36.0011 28.632 38.1131 27.512C40.2251 26.392 42.5931 25.832 45.2171 25.832C47.8411 25.832 50.2091 26.392 52.3211 27.512C54.4331 28.632 56.0971 30.248 57.3131 32.36C58.5291 34.44 59.1371 36.856 59.1371 39.608C59.1371 42.36 58.5131 44.792 57.2651 46.904C56.0491 48.984 54.3691 50.584 52.2251 51.704C50.1131 52.824 47.7451 53.384 45.1211 53.384ZM45.1211 46.28C46.6891 46.28 48.0171 45.704 49.1051 44.552C50.2251 43.4 50.7851 41.752 50.7851 39.608C50.7851 37.464 50.2411 35.816 49.1531 34.664C48.0971 33.512 46.7851 32.936 45.2171 32.936C43.6171 32.936 42.2891 33.512 41.2331 34.664C40.1771 35.784 39.6491 37.432 39.6491 39.608C39.6491 41.752 40.1611 43.4 41.1851 44.552C42.2411 45.704 43.5531 46.28 45.1211 46.28ZM79.8596 53L71.6996 41.768V53H63.4916V17.48H71.6996V37.112L79.8116 26.216H89.9396L78.8036 39.656L90.0356 53H79.8596ZM118.411 39.176C118.411 39.944 118.364 40.744 118.268 41.576H99.6915C99.8195 43.24 100.348 44.52 101.276 45.416C102.236 46.28 103.404 46.712 104.78 46.712C106.828 46.712 108.252 45.848 109.052 44.12H117.788C117.34 45.88 116.524 47.464 115.34 48.872C114.188 50.28 112.732 51.384 110.972 52.184C109.212 52.984 107.244 53.384 105.068 53.384C102.444 53.384 100.108 52.824 98.0595 51.704C96.0115 50.584 94.4115 48.984 93.2595 46.904C92.1075 44.824 91.5315 42.392 91.5315 39.608C91.5315 36.824 92.0915 34.392 93.2115 32.312C94.3635 30.232 95.9635 28.632 98.0115 27.512C100.06 26.392 102.412 25.832 105.068 25.832C107.66 25.832 109.964 26.376 111.98 27.464C113.996 28.552 115.564 30.104 116.684 32.12C117.836 34.136 118.411 36.488 118.411 39.176ZM110.012 37.016C110.012 35.608 109.532 34.488 108.572 33.656C107.612 32.824 106.412 32.408 104.972 32.408C103.596 32.408 102.428 32.808 101.468 33.608C100.54 34.408 99.9635 35.544 99.7395 37.016H110.012ZM143.718 47.048H131.142L129.126 53H120.534L132.726 19.304H142.23L154.422 53H145.734L143.718 47.048ZM141.606 40.712L137.43 28.376L133.302 40.712H141.606ZM166.34 30.008C167.14 28.76 168.244 27.752 169.652 26.984C171.06 26.216 172.708 25.832 174.596 25.832C176.804 25.832 178.804 26.392 180.596 27.512C182.388 28.632 183.796 30.232 184.82 32.312C185.876 34.392 186.404 36.808 186.404 39.56C186.404 42.312 185.876 44.744 184.82 46.856C183.796 48.936 182.388 50.552 180.596 51.704C178.804 52.824 176.804 53.384 174.596 53.384C172.74 53.384 171.092 53 169.652 52.232C168.244 51.464 167.14 50.472 166.34 49.256V65.768H158.132V26.216H166.34V30.008ZM178.052 39.56C178.052 37.512 177.476 35.912 176.324 34.76C175.204 33.576 173.812 32.984 172.148 32.984C170.516 32.984 169.124 33.576 167.972 34.76C166.852 35.944 166.292 37.56 166.292 39.608C166.292 41.656 166.852 43.272 167.972 44.456C169.124 45.64 170.516 46.232 172.148 46.232C173.78 46.232 175.172 45.64 176.324 44.456C177.476 43.24 178.052 41.608 178.052 39.56ZM198.918 30.008C199.718 28.76 200.822 27.752 202.23 26.984C203.638 26.216 205.286 25.832 207.174 25.832C209.382 25.832 211.382 26.392 213.174 27.512C214.966 28.632 216.374 30.232 217.398 32.312C218.454 34.392 218.982 36.808 218.982 39.56C218.982 42.312 218.454 44.744 217.398 46.856C216.374 48.936 214.966 50.552 213.174 51.704C211.382 52.824 209.382 53.384 207.174 53.384C205.318 53.384 203.67 53 202.23 52.232C200.822 51.464 199.718 50.472 198.918 49.256V65.768H190.71V26.216H198.918V30.008ZM210.63 39.56C210.63 37.512 210.054 35.912 208.902 34.76C207.782 33.576 206.39 32.984 204.726 32.984C203.094 32.984 201.702 33.576 200.55 34.76C199.43 35.944 198.87 37.56 198.87 39.608C198.87 41.656 199.43 43.272 200.55 44.456C201.702 45.64 203.094 46.232 204.726 46.232C206.358 46.232 207.75 45.64 208.902 44.456C210.054 43.24 210.63 41.608 210.63 39.56Z" fill="#EDEDED"/>
<path d="M274.667 36C274.667 37.7681 273.964 39.4638 272.714 40.7141C271.464 41.9643 269.768 42.6667 268 42.6667C266.232 42.6667 264.536 41.9643 263.286 40.7141C262.036 39.4638 261.333 37.7681 261.333 36C261.333 34.2319 262.036 32.5362 263.286 31.286C264.536 30.0357 266.232 29.3333 268 29.3333C269.768 29.3333 271.464 30.0357 272.714 31.286C273.964 32.5362 274.667 34.2319 274.667 36ZM294.667 36C294.667 50.72 282.72 62.6667 268 62.6667C253.28 62.6667 241.333 50.72 241.333 36C241.333 21.28 253.28 9.33334 268 9.33334C282.72 9.33334 294.667 21.28 294.667 36ZM289.333 36H278.667C278.667 30.1067 273.893 25.3333 268 25.3333C262.107 25.3333 257.333 30.1067 257.333 36H246.667C246.667 47.76 256.24 57.3333 268 57.3333C279.76 57.3333 289.333 47.76 289.333 36Z" fill="#EDEDED"/>
</svg>
